<svg width="290" height="176" viewBox="0 0 290 176" fill="none" xmlns="http://www.w3.org/2000/svg">
<path d="M1.184 62.832C1.184 60.656 1.68533 58.704 2.688 56.976C3.712 55.248 5.088 53.904 6.816 52.944C8.56533 51.9627 10.4747 51.472 12.544 51.472C14.912 51.472 17.0133 52.0587 18.848 53.232C20.704 54.384 22.048 56.0267 22.88 58.16H18.496C17.92 56.9867 17.12 56.112 16.096 55.536C15.072 54.96 13.888 54.672 12.544 54.672C11.072 54.672 9.76 55.0027 8.608 55.664C7.456 56.3253 6.54933 57.2747 5.888 58.512C5.248 59.7493 4.928 61.1893 4.928 62.832C4.928 64.4747 5.248 65.9147 5.888 67.152C6.54933 68.3893 7.456 69.3493 8.608 70.032C9.76 70.6933 11.072 71.024 12.544 71.024C13.888 71.024 15.072 70.736 16.096 70.16C17.12 69.584 17.92 68.7093 18.496 67.536H22.88C22.048 69.6693 20.704 71.312 18.848 72.464C17.0133 73.616 14.912 74.192 12.544 74.192C10.4533 74.192 8.544 73.712 6.816 72.752C5.088 71.7707 3.712 70.416 2.688 68.688C1.68533 66.96 1.184 65.008 1.184 62.832ZM25.934 65.104C25.934 63.3333 26.2967 61.7653 27.022 60.4C27.7687 59.0347 28.7713 57.9787 30.03 57.232C31.31 56.464 32.718 56.08 34.254 56.08C35.6407 56.08 36.846 56.3573 37.87 56.912C38.9153 57.4453 39.7473 58.1173 40.366 58.928V56.368H44.046V74H40.366V71.376C39.7473 72.208 38.9047 72.9013 37.838 73.456C36.7713 74.0107 35.5553 74.288 34.19 74.288C32.6753 74.288 31.2887 73.904 30.03 73.136C28.7713 72.3467 27.7687 71.2587 27.022 69.872C26.2967 68.464 25.934 66.8747 25.934 65.104ZM40.366 65.168C40.366 63.952 40.11 62.896 39.598 62C39.1073 61.104 38.4567 60.4213 37.646 59.952C36.8353 59.4827 35.9607 59.248 35.022 59.248C34.0833 59.248 33.2087 59.4827 32.398 59.952C31.5873 60.4 30.926 61.072 30.414 61.968C29.9233 62.8427 29.678 63.888 29.678 65.104C29.678 66.32 29.9233 67.3867 30.414 68.304C30.926 69.2213 31.5873 69.9253 32.398 70.416C33.23 70.8853 34.1047 71.12 35.022 71.12C35.9607 71.12 36.8353 70.8853 37.646 70.416C38.4567 69.9467 39.1073 69.264 39.598 68.368C40.11 67.4507 40.366 66.384 40.366 65.168ZM70.1815 56.08C71.5682 56.08 72.8055 56.368 73.8935 56.944C75.0028 57.52 75.8668 58.3733 76.4855 59.504C77.1255 60.6347 77.4455 62 77.4455 63.6V74H73.8295V64.144C73.8295 62.5653 73.4348 61.36 72.6455 60.528C71.8562 59.6747 70.7788 59.248 69.4135 59.248C68.0482 59.248 66.9602 59.6747 66.1495 60.528C65.3602 61.36 64.9655 62.5653 64.9655 64.144V74H61.3495V64.144C61.3495 62.5653 60.9548 61.36 60.1655 60.528C59.3762 59.6747 58.2988 59.248 56.9335 59.248C55.5682 59.248 54.4802 59.6747 53.6695 60.528C52.8802 61.36 52.4855 62.5653 52.4855 64.144V74H48.8375V56.368H52.4855V58.384C53.0828 57.6587 53.8402 57.0933 54.7575 56.688C55.6748 56.2827 56.6562 56.08 57.7015 56.08C59.1095 56.08 60.3682 56.3787 61.4775 56.976C62.5868 57.5733 63.4402 58.4373 64.0375 59.568C64.5708 58.5013 65.4028 57.6587 66.5335 57.04C67.6642 56.4 68.8802 56.08 70.1815 56.08ZM83.9435 54.032C83.2822 54.032 82.7275 53.808 82.2795 53.36C81.8315 52.912 81.6075 52.3573 81.6075 51.696C81.6075 51.0347 81.8315 50.48 82.2795 50.032C82.7275 49.584 83.2822 49.36 83.9435 49.36C84.5835 49.36 85.1275 49.584 85.5755 50.032C86.0235 50.48 86.2475 51.0347 86.2475 51.696C86.2475 52.3573 86.0235 52.912 85.5755 53.36C85.1275 53.808 84.5835 54.032 83.9435 54.032ZM85.7355 56.368V74H82.0875V56.368H85.7355ZM99.421 56.08C100.808 56.08 102.045 56.368 103.133 56.944C104.242 57.52 105.106 58.3733 105.725 59.504C106.344 60.6347 106.653 62 106.653 63.6V74H103.037V64.144C103.037 62.5653 102.642 61.36 101.853 60.528C101.064 59.6747 99.9863 59.248 98.621 59.248C97.2557 59.248 96.1677 59.6747 95.357 60.528C94.5677 61.36 94.173 62.5653 94.173 64.144V74H90.525V56.368H94.173V58.384C94.7703 57.6587 95.5277 57.0933 96.445 56.688C97.3837 56.2827 98.3757 56.08 99.421 56.08ZM120.426 56.08C121.77 56.08 122.965 56.368 124.01 56.944C125.077 57.52 125.909 58.3733 126.506 59.504C127.125 60.6347 127.434 62 127.434 63.6V74H123.818V64.144C123.818 62.5653 123.424 61.36 122.634 60.528C121.845 59.6747 120.768 59.248 119.402 59.248C118.037 59.248 116.949 59.6747 116.138 60.528C115.349 61.36 114.954 62.5653 114.954 64.144V74H111.306V50.32H114.954V58.416C115.573 57.6693 116.352 57.0933 117.29 56.688C118.25 56.2827 119.296 56.08 120.426 56.08ZM139.736 74.288C138.072 74.288 136.568 73.9147 135.224 73.168C133.88 72.4 132.824 71.3333 132.056 69.968C131.288 68.5813 130.904 66.9813 130.904 65.168C130.904 63.376 131.298 61.7867 132.088 60.4C132.877 59.0133 133.954 57.9467 135.32 57.2C136.685 56.4533 138.21 56.08 139.896 56.08C141.581 56.08 143.106 56.4533 144.472 57.2C145.837 57.9467 146.914 59.0133 147.704 60.4C148.493 61.7867 148.888 63.376 148.888 65.168C148.888 66.96 148.482 68.5493 147.672 69.936C146.861 71.3227 145.752 72.4 144.344 73.168C142.957 73.9147 141.421 74.288 139.736 74.288ZM139.736 71.12C140.674 71.12 141.549 70.896 142.36 70.448C143.192 70 143.864 69.328 144.376 68.432C144.888 67.536 145.144 66.448 145.144 65.168C145.144 63.888 144.898 62.8107 144.408 61.936C143.917 61.04 143.266 60.368 142.456 59.92C141.645 59.472 140.77 59.248 139.832 59.248C138.893 59.248 138.018 59.472 137.208 59.92C136.418 60.368 135.789 61.04 135.32 61.936C134.85 62.8107 134.616 63.888 134.616 65.168C134.616 67.0667 135.096 68.5387 136.056 69.584C137.037 70.608 138.264 71.12 139.736 71.12Z" fill="black"/>
<path d="M70.664 91.76C73.032 91.76 75.1013 92.2187 76.872 93.136C78.664 94.032 80.04 95.3333 81 97.04C81.9813 98.7253 82.472 100.699 82.472 102.96C82.472 105.221 81.9813 107.184 81 108.848C80.04 110.512 78.664 111.792 76.872 112.688C75.1013 113.563 73.032 114 70.664 114H63.4V91.76H70.664ZM70.664 111.024C73.2667 111.024 75.2613 110.32 76.648 108.912C78.0347 107.504 78.728 105.52 78.728 102.96C78.728 100.379 78.0347 98.3627 76.648 96.912C75.2613 95.4613 73.2667 94.736 70.664 94.736H67.048V111.024H70.664ZM84.8715 105.104C84.8715 103.333 85.2342 101.765 85.9595 100.4C86.7062 99.0347 87.7088 97.9787 88.9675 97.232C90.2475 96.464 91.6555 96.08 93.1915 96.08C94.5782 96.08 95.7835 96.3573 96.8075 96.912C97.8528 97.4453 98.6848 98.1173 99.3035 98.928V96.368H102.984V114H99.3035V111.376C98.6848 112.208 97.8422 112.901 96.7755 113.456C95.7088 114.011 94.4928 114.288 93.1275 114.288C91.6128 114.288 90.2262 113.904 88.9675 113.136C87.7088 112.347 86.7062 111.259 85.9595 109.872C85.2342 108.464 84.8715 106.875 84.8715 105.104ZM99.3035 105.168C99.3035 103.952 99.0475 102.896 98.5355 102C98.0448 101.104 97.3942 100.421 96.5835 99.952C95.7728 99.4827 94.8982 99.248 93.9595 99.248C93.0208 99.248 92.1462 99.4827 91.3355 99.952C90.5248 100.4 89.8635 101.072 89.3515 101.968C88.8608 102.843 88.6155 103.888 88.6155 105.104C88.6155 106.32 88.8608 107.387 89.3515 108.304C89.8635 109.221 90.5248 109.925 91.3355 110.416C92.1675 110.885 93.0422 111.12 93.9595 111.12C94.8982 111.12 95.7728 110.885 96.5835 110.416C97.3942 109.947 98.0448 109.264 98.5355 108.368C99.0475 107.451 99.3035 106.384 99.3035 105.168Z" fill="black"/>
<path d="M216.232 29.8888L244.062 120.27L149.689 114.179L216.232 29.8888Z" stroke="#EE0000" stroke-opacity="0.5" stroke-width="5"/>
<path d="M26.048 134.704V141.232H33.728V144.208H26.048V151.024H34.688V154H22.4V131.728H34.688V134.704H26.048ZM45.5813 154.288C44.1946 154.288 42.9466 154.043 41.8373 153.552C40.7493 153.04 39.8853 152.357 39.2453 151.504C38.6053 150.629 38.2639 149.659 38.2213 148.592H41.9973C42.0613 149.339 42.4133 149.968 43.0533 150.48C43.7146 150.971 44.5359 151.216 45.5173 151.216C46.5413 151.216 47.3306 151.024 47.8853 150.64C48.4613 150.235 48.7493 149.723 48.7493 149.104C48.7493 148.443 48.4293 147.952 47.7893 147.632C47.1706 147.312 46.1786 146.96 44.8133 146.576C43.4906 146.213 42.4133 145.861 41.5813 145.52C40.7493 145.179 40.0239 144.656 39.4053 143.952C38.8079 143.248 38.5093 142.32 38.5093 141.168C38.5093 140.229 38.7866 139.376 39.3413 138.608C39.8959 137.819 40.6853 137.2 41.7093 136.752C42.7546 136.304 43.9493 136.08 45.2933 136.08C47.2986 136.08 48.9093 136.592 50.1253 137.616C51.3626 138.619 52.0239 139.995 52.1093 141.744H48.4613C48.3973 140.955 48.0773 140.325 47.5013 139.856C46.9253 139.387 46.1466 139.152 45.1653 139.152C44.2053 139.152 43.4693 139.333 42.9573 139.696C42.4453 140.059 42.1893 140.539 42.1893 141.136C42.1893 141.605 42.3599 142 42.7013 142.32C43.0426 142.64 43.4586 142.896 43.9493 143.088C44.4399 143.259 45.1653 143.483 46.1253 143.76C47.4053 144.101 48.4506 144.453 49.2613 144.816C50.0933 145.157 50.8079 145.669 51.4053 146.352C52.0026 147.035 52.3119 147.941 52.3333 149.072C52.3333 150.075 52.0559 150.971 51.5013 151.76C50.9466 152.549 50.1573 153.168 49.1333 153.616C48.1306 154.064 46.9466 154.288 45.5813 154.288ZM59.923 138.96C60.5417 138.149 61.3843 137.467 62.451 136.912C63.5177 136.357 64.723 136.08 66.067 136.08C67.603 136.08 69.0003 136.464 70.259 137.232C71.539 137.979 72.5417 139.035 73.267 140.4C73.9923 141.765 74.355 143.333 74.355 145.104C74.355 146.875 73.9923 148.464 73.267 149.872C72.5417 151.259 71.539 152.347 70.259 153.136C69.0003 153.904 67.603 154.288 66.067 154.288C64.723 154.288 63.5283 154.021 62.483 153.488C61.4377 152.933 60.5843 152.251 59.923 151.44V162.384H56.275V136.368H59.923V138.96ZM70.643 145.104C70.643 143.888 70.387 142.843 69.875 141.968C69.3843 141.072 68.723 140.4 67.891 139.952C67.0803 139.483 66.2057 139.248 65.267 139.248C64.3497 139.248 63.475 139.483 62.643 139.952C61.8323 140.421 61.171 141.104 60.659 142C60.1683 142.896 59.923 143.952 59.923 145.168C59.923 146.384 60.1683 147.451 60.659 148.368C61.171 149.264 61.8323 149.947 62.643 150.416C63.475 150.885 64.3497 151.12 65.267 151.12C66.2057 151.12 67.0803 150.885 67.891 150.416C68.723 149.925 69.3843 149.221 69.875 148.304C70.387 147.387 70.643 146.32 70.643 145.104ZM94.1225 144.752C94.1225 145.413 94.0798 146.011 93.9945 146.544H80.5225C80.6292 147.952 81.1518 149.083 82.0905 149.936C83.0292 150.789 84.1812 151.216 85.5465 151.216C87.5092 151.216 88.8958 150.395 89.7065 148.752H93.6425C93.1092 150.373 92.1385 151.707 90.7305 152.752C89.3438 153.776 87.6158 154.288 85.5465 154.288C83.8612 154.288 82.3465 153.915 81.0025 153.168C79.6798 152.4 78.6345 151.333 77.8665 149.968C77.1198 148.581 76.7465 146.981 76.7465 145.168C76.7465 143.355 77.1092 141.765 77.8345 140.4C78.5812 139.013 79.6158 137.947 80.9385 137.2C82.2825 136.453 83.8185 136.08 85.5465 136.08C87.2105 136.08 88.6932 136.443 89.9945 137.168C91.2958 137.893 92.3092 138.917 93.0345 140.24C93.7598 141.541 94.1225 143.045 94.1225 144.752ZM90.3145 143.6C90.2932 142.256 89.8132 141.179 88.8745 140.368C87.9358 139.557 86.7732 139.152 85.3865 139.152C84.1278 139.152 83.0505 139.557 82.1545 140.368C81.2585 141.157 80.7252 142.235 80.5545 143.6H90.3145ZM101.361 138.928C101.894 138.032 102.598 137.339 103.473 136.848C104.369 136.336 105.425 136.08 106.641 136.08V139.856H105.713C104.283 139.856 103.195 140.219 102.449 140.944C101.723 141.669 101.361 142.928 101.361 144.72V154H97.7125V136.368H101.361V138.928ZM108.778 145.104C108.778 143.333 109.14 141.765 109.866 140.4C110.612 139.035 111.615 137.979 112.874 137.232C114.154 136.464 115.562 136.08 117.098 136.08C118.484 136.08 119.69 136.357 120.714 136.912C121.759 137.445 122.591 138.117 123.21 138.928V136.368H126.89V154H123.21V151.376C122.591 152.208 121.748 152.901 120.682 153.456C119.615 154.011 118.399 154.288 117.034 154.288C115.519 154.288 114.132 153.904 112.874 153.136C111.615 152.347 110.612 151.259 109.866 149.872C109.14 148.464 108.778 146.875 108.778 145.104ZM123.21 145.168C123.21 143.952 122.954 142.896 122.442 142C121.951 141.104 121.3 140.421 120.49 139.952C119.679 139.483 118.804 139.248 117.866 139.248C116.927 139.248 116.052 139.483 115.242 139.952C114.431 140.4 113.77 141.072 113.258 141.968C112.767 142.843 112.522 143.888 112.522 145.104C112.522 146.32 112.767 147.387 113.258 148.304C113.77 149.221 114.431 149.925 115.242 150.416C116.074 150.885 116.948 151.12 117.866 151.12C118.804 151.12 119.679 150.885 120.49 150.416C121.3 149.947 121.951 149.264 122.442 148.368C122.954 147.451 123.21 146.384 123.21 145.168ZM140.577 136.08C141.964 136.08 143.201 136.368 144.289 136.944C145.399 137.52 146.263 138.373 146.881 139.504C147.5 140.635 147.809 142 147.809 143.6V154H144.193V144.144C144.193 142.565 143.799 141.36 143.009 140.528C142.22 139.675 141.143 139.248 139.777 139.248C138.412 139.248 137.324 139.675 136.513 140.528C135.724 141.36 135.329 142.565 135.329 144.144V154H131.681V136.368H135.329V138.384C135.927 137.659 136.684 137.093 137.601 136.688C138.54 136.283 139.532 136.08 140.577 136.08ZM159.887 151.216C161.999 151.216 163.396 150.288 164.079 148.432H168.015C167.545 150.053 166.703 151.387 165.487 152.432C164.292 153.456 162.788 154.053 160.975 154.224V155.536C162.212 155.536 163.215 155.824 163.983 156.4C164.751 156.997 165.135 157.829 165.135 158.896C165.135 159.963 164.751 160.805 163.983 161.424C163.215 162.064 162.244 162.384 161.071 162.384H156.847V160.08H160.335C160.932 160.08 161.38 159.995 161.679 159.824C161.977 159.653 162.127 159.344 162.127 158.896C162.127 158.448 161.977 158.139 161.679 157.968C161.38 157.797 160.932 157.712 160.335 157.712H158.575V154.192C157.124 154.021 155.844 153.541 154.735 152.752C153.625 151.941 152.761 150.896 152.143 149.616C151.545 148.315 151.247 146.832 151.247 145.168C151.247 143.355 151.609 141.765 152.335 140.4C153.081 139.013 154.105 137.947 155.407 137.2C156.708 136.453 158.201 136.08 159.887 136.08C162.02 136.08 163.78 136.592 165.167 137.616C166.575 138.619 167.524 140.059 168.015 141.936H164.079C163.759 141.061 163.247 140.379 162.543 139.888C161.839 139.397 160.953 139.152 159.887 139.152C158.393 139.152 157.199 139.685 156.303 140.752C155.428 141.797 154.991 143.269 154.991 145.168C154.991 147.067 155.428 148.549 156.303 149.616C157.199 150.683 158.393 151.216 159.887 151.216ZM170.434 145.104C170.434 143.333 170.797 141.765 171.522 140.4C172.269 139.035 173.271 137.979 174.53 137.232C175.81 136.464 177.218 136.08 178.754 136.08C180.141 136.08 181.346 136.357 182.37 136.912C183.415 137.445 184.247 138.117 184.866 138.928V136.368H188.546V154H184.866V151.376C184.247 152.208 183.405 152.901 182.338 153.456C181.271 154.011 180.055 154.288 178.69 154.288C177.175 154.288 175.789 153.904 174.53 153.136C173.271 152.347 172.269 151.259 171.522 149.872C170.797 148.464 170.434 146.875 170.434 145.104ZM184.866 145.168C184.866 143.952 184.61 142.896 184.098 142C183.607 141.104 182.957 140.421 182.146 139.952C181.335 139.483 180.461 139.248 179.522 139.248C178.583 139.248 177.709 139.483 176.898 139.952C176.087 140.4 175.426 141.072 174.914 141.968C174.423 142.843 174.178 143.888 174.178 145.104C174.178 146.32 174.423 147.387 174.914 148.304C175.426 149.221 176.087 149.925 176.898 150.416C177.73 150.885 178.605 151.12 179.522 151.12C180.461 151.12 181.335 150.885 182.146 150.416C182.957 149.947 183.607 149.264 184.098 148.368C184.61 147.451 184.866 146.384 184.866 145.168Z" fill="black"/>
<path d="M225.5 88C225.5 100.853 216.827 110.5 207 110.5C197.173 110.5 188.5 100.853 188.5 88C188.5 75.1475 197.173 65.5 207 65.5C216.827 65.5 225.5 75.1475 225.5 88Z" stroke="black" stroke-opacity="0.5" stroke-width="5"/>
<rect x="187.702" y="40.4533" width="83.5175" height="59.8258" transform="rotate(32.6186 187.702 40.4533)" stroke="#2846B4" stroke-opacity="0.5" stroke-width="5"/>
</svg>
